PathFileType	4	(X/Y/Z)	D:\Vicon data\Senior Design EMG regression\Subject 2- Oliver\Session 3\oliver- static trial.trc
DataRate	CameraRate	NumFrames	NumMarkers	Units	OrigDataRate	OrigDataStartFrame	OrigNumFrames
100.0	100.0	6	60	mm	100.0	495	565	
Frame#	Time	HEAD			C7			CLAV			STUR			LSHO			LHAR2			LHME			LRAH			LRAD			LULN			LMCM			RSHO			RHAR2			RHME			RRAH			RRAD			RULN			RMCM			LASI			RASI			LPSI			RPSI			LLAT			LLFC			LKNE			LLAN			LHEE			LTOE			RLAT			RLFC			RKNE			RLAN			RHEE			RTOE			RSMT			RMAN			LSMT			LMAN			RSAT1			RSAT			RMFC			LSAT1			LSAT			LMFC			BARB			RHAR1			RHGT			RHHB			RHHF			RHLE			RMCR			RMCA			RMCI			LHHF			LHHB			LHGT			LHAR1			LHLE			LMCR			LMCI			
		X1	Y1	Z1	X2	Y2	Z2	X3	Y3	Z3	X4	Y4	Z4	X5	Y5	Z5	X6	Y6	Z6	X7	Y7	Z7	X8	Y8	Z8	X9	Y9	Z9	X10	Y10	Z10	X11	Y11	Z11	X12	Y12	Z12	X13	Y13	Z13	X14	Y14	Z14	X15	Y15	Z15	X16	Y16	Z16	X17	Y17	Z17	X18	Y18	Z18	X19	Y19	Z19	X20	Y20	Z20	X21	Y21	Z21	X22	Y22	Z22	X23	Y23	Z23	X24	Y24	Z24	X25	Y25	Z25	X26	Y26	Z26	X27	Y27	Z27	X28	Y28	Z28	X29	Y29	Z29	X30	Y30	Z30	X31	Y31	Z31	X32	Y32	Z32	X33	Y33	Z33	X34	Y34	Z34	X35	Y35	Z35	X36	Y36	Z36	X37	Y37	Z37	X38	Y38	Z38	X39	Y39	Z39	X40	Y40	Z40	X41	Y41	Z41	X42	Y42	Z42	X43	Y43	Z43	X44	Y44	Z44	X45	Y45	Z45	X46	Y46	Z46	X47	Y47	Z47	X48	Y48	Z48	X49	Y49	Z49	X50	Y50	Z50	X51	Y51	Z51	X52	Y52	Z52	X53	Y53	Z53	X54	Y54	Z54	X55	Y55	Z55	X56	Y56	Z56	X57	Y57	Z57	X58	Y58	Z58	X59	Y59	Z59	X60	Y60	Z60	
495	4.94	-3.6442761	1658.9567	-413.61673	3.4168093	1486.1835	-195.14896	6.3064637	1420.4875	-331.53436	6.9267287	1218.6355	-386.41177	-153.69867	1477.3204	-257.87393	-319.11935	1427.1637	-311.37479	-406.26187	1300.0746	-346.93735	-373.52463	1380.4109	-389.6301	-364.60095	1360.1003	-577.08569	-440.73975	1354.1385	-578.53613	-389.05884	1367.8665	-664.33917	165.39468	1461.8241	-235.13069	313.92789	1413.8898	-288.3714	423.57104	1383.9198	-298.4855	403.59494	1378.8182	-342.2554	416.37302	1342.646	-540.0874	486.90137	1363.1118	-533.49127	454.37894	1347.8213	-632.61975	-81.850067	924.75598	-396.40015	134.6403	942.18591	-388.21008	-16.212439	990.75891	-167.38921	61.536488	990.56244	-165.26505	-130.58228	581.59674	-328.26184	-116.92687	489.59943	-310.61841	-71.935814	435.09354	-338.57266	-125.65411	93.594055	-225.94034	-82.864326	73.701469	-163.28354	-90.303993	48.588947	-427.31274	214.82228	725.47302	-295.98419	140.34546	485.75848	-309.75378	98.918785	448.49237	-328.69751	149.94983	88.687096	-220.31187	104.62743	71.74456	-165.3546	113.57568	54.219978	-422.57843	166.67207	53.821114	-360.40277	67.058197	98.670074	-239.29175	-148.38536	54.679249	-346.18542	-38.661942	94.940445	-241.52065	156.86845	814.08105	-391.99506	119.24809	605.67371	-372.31897	42.898624	469.99799	-289.88376	-76.520668	790.77686	-419.73862	-84.815269	637.54657	-392.78412	-14.209777	471.79617	-309.4903	56.599728	1234.6537	-146.67877	379.44556	1376.9351	-245.33707	273.13995	1431.619	-230.95309	184.70789	1375.4686	-170.80168	175.06581	1425.4071	-320.19846				477.84207	1344.703	-623.48486	493.67722	1349.6924	-592.50769	430.49567	1349.099	-631.79663	-154.25092	1426.9598	-339.31427	-193.56255	1414.0736	-214.15927	-259.07611	1462.0848	-281.29971	-375.83777	1394.0498	-273.77115	-416.45056	1402.1548	-331.71747	-414.04068	1362.615	-663.79822	-359.91229	1363.7777	-665.07953
496	4.95	-3.73282	1658.9567	-413.64392	3.3708165	1486.1669	-195.20413	6.2804294	1420.4425	-331.57327	6.8975739	1218.6119	-386.41388	-153.7182	1477.309	-257.93454	-319.14355	1427.1279	-311.4653	-406.48019	1300.0154	-347.00732	-373.53394	1380.4073	-389.73334	-364.60391	1360.071	-577.16412	-440.76605	1354.1094	-578.58246	-389.0639	1367.8729	-664.72937	165.33624	1461.8391	-235.1647	313.90173	1413.9188	-288.4169	423.5166	1383.9784	-298.49652	403.57397	1378.8369	-342.30322	416.37332	1342.8478	-540.11188	486.88754	1363.2367	-533.53448	454.30484	1347.9762	-632.63788	-81.812363	924.7608	-396.49301	134.68457	942.18512	-388.27887	-16.246145	990.74469	-167.44315	61.532562	990.52655	-165.33884	-130.53453	581.62268	-328.32858	-116.96152	489.63864	-310.64252	-71.939903	435.08728	-338.6279	-125.62682	93.633728	-225.88438	-82.859612	73.695076	-163.29779	-90.290459	48.595833	-427.32156	214.8333	725.47028	-296.06778	140.3118	485.72675	-309.8006	98.901062	448.4924	-328.76306	149.96042	88.685394	-220.32959	104.59969	71.749794	-165.32626	113.60394	54.24403	-422.56915	166.68085	53.851105	-360.41086	67.054337	98.681358	-239.24835	-148.38194	54.693649	-346.17233	-38.661171	94.970894	-241.50879	156.82924	814.03589	-392.06097	119.24253	605.68176	-372.40088	42.882374	470.043	-289.97211	-76.471924	790.79901	-419.82059	-84.801018	637.54279	-392.89709	-14.212532	471.80505	-309.52908	56.586006	1234.6748	-146.73732	379.43073	1376.9767	-245.34254	273.10666	1431.6479	-230.97337	184.66093	1375.4783	-170.85583	175.02986	1425.4231	-320.22766				477.84985	1344.8688	-623.5238	493.71945	1349.8448	-592.59534	430.48923	1349.2878	-631.75409	-154.22731	1426.9052	-339.39642	-193.57364	1414.0726	-214.21179	-259.09341	1462.0691	-281.39816	-375.86224	1394.0386	-273.8559	-416.47235	1402.1132	-331.79544	-414.08997	1362.6378	-663.87396	-359.92044	1363.7059	-665.10455
497	4.96	-3.7676632	1658.9647	-413.70316	3.3113263	1486.1475	-195.27727	6.2562246	1420.425	-331.6022	6.919374	1218.5817	-386.4671	-153.7336	1477.2567	-257.99857	-319.16339	1427.0317	-311.5697	-406.56683	1299.876	-346.987	-373.61423	1380.3253	-389.74625	-364.57034	1360.0126	-577.25421	-440.75977	1354.0314	-578.6203	-388.97089	1367.8342	-664.49939	165.30707	1461.8472	-235.20538	313.88135	1413.9366	-288.43924	423.48245	1384.0206	-298.56766	403.48663	1378.8557	-342.3219	416.37152	1342.9706	-540.11896	486.88284	1363.3781	-533.56146	454.27823	1348.1558	-632.68048	-81.813347	924.73676	-396.5668	134.7168	942.20013	-388.39334	-16.26582	990.67224	-167.53233	61.517025	990.42072	-165.52019	-130.72983	581.84528	-328.03058	-116.95303	489.6189	-310.69727	-71.952347	435.07321	-338.64404	-125.61668	93.574684	-225.91454	-82.84008	73.674034	-163.28561	-90.301216	48.5653	-427.30042	214.84708	725.46063	-296.12939	140.3181	485.72653	-309.85654	98.913078	448.4534	-328.80914	149.94699	88.668831	-220.3252	104.63598	71.728874	-165.34286	113.60229	54.22139	-422.55804	166.70546	53.833412	-360.39935	67.035782	98.655548	-239.21249	-148.39609	54.679745	-346.14319	-38.646275	94.971741	-241.48807	156.85405	814.03217	-392.15717	119.22841	605.72357	-372.46384	42.86784	470.01331	-289.99628	-76.460037	790.7749	-419.87997	-84.780235	637.56622	-393.00473	-14.206239	471.84702	-309.57303	56.561672	1234.6108	-146.83324	379.40292	1376.9857	-245.41403	273.08441	1431.6545	-231.01469	184.66956	1375.4939	-170.88269	174.99994	1425.4535	-320.27295				477.8457	1345.0948	-623.59155	493.73743	1350.0056	-592.61505	430.44427	1349.4799	-631.75226	-154.26477	1426.8499	-339.4324	-193.61014	1414.0371	-214.27592	-259.13135	1462.0067	-281.48987	-375.90103	1393.9532	-273.93427	-416.49304	1402.0409	-331.83926	-414.03976	1362.4725	-663.88959	-359.93533	1363.636	-665.1535
498	4.97	-3.8676648	1658.9884	-413.733	3.2848635	1486.1331	-195.33131	6.1940198	1420.3851	-331.64682	6.9289188	1218.5509	-386.56454	-153.77257	1477.2323	-258.06088	-319.20352	1426.9513	-311.64462	-407.07678	1299.5867	-346.80469	-373.63889	1380.1688	-389.74374	-364.57718	1359.9265	-577.32758	-440.76337	1353.9279	-578.70105	-388.95422	1367.7882	-664.60156	165.26956	1461.8715	-235.24329	313.8476	1413.9792	-288.45712	423.42371	1384.0588	-298.60022	403.43289	1378.8853	-342.38199	416.38788	1343.0812	-540.09808	486.87796	1363.551	-533.59033	454.28165	1348.3854	-632.73425	-81.80938	924.74542	-396.65866	134.69688	942.19537	-388.48581	-16.239317	990.65271	-167.64557	61.47403	990.32654	-165.80209	-130.63342	581.84918	-328.2002	-116.93769	489.62302	-310.75998	-71.948242	435.09372	-338.72223	-125.60474	93.58255	-225.93376	-82.847641	73.7136	-163.28017	-90.291313	48.576347	-427.30923	214.80777	725.47406	-296.17337	140.30443	485.70499	-309.89859	98.886726	448.45126	-328.83701	149.9809	88.701675	-220.25615	104.62177	71.736473	-165.32115	113.59916	54.229031	-422.55026	166.69421	53.827728	-360.39185	67.075569	98.634972	-239.31117	-148.40744	54.685715	-346.15244	-38.644791	94.983337	-241.5032	156.82816	814.02881	-392.24161	119.22812	605.6994	-372.51816	42.848042	469.96936	-290.07944	-76.459206	790.81055	-420.0466	-84.77594	637.58258	-393.13297	-14.22726	471.85016	-309.66547	56.50663	1234.5813	-146.90219	379.36969	1377.0365	-245.44905	273.04831	1431.6797	-231.06221	184.63019	1375.4883	-170.94508	174.95557	1425.4692	-320.30807				477.84317	1345.4222	-623.63818	493.7326	1350.2167	-592.66913	430.43619	1349.7844	-631.85498	-154.25798	1426.8086	-339.46255	-193.6396	1414.0236	-214.32242	-259.14435	1461.9838	-281.58966	-375.92798	1393.8561	-273.99542	-416.51886	1401.9518	-331.91745	-414.08282	1362.4893	-664.04614	-359.89798	1363.6271	-665.23688
499	4.98	-3.9163692	1658.9733	-413.81046	3.26491	1486.1284	-195.37668	6.1762061	1420.3512	-331.68216	6.8908987	1218.4954	-386.62811	-153.79556	1477.2158	-258.08978	-319.24072	1426.8813	-311.68973	-406.57104	1299.7002	-347.17398	-373.60028	1380.0018	-389.81882	-364.53946	1359.8912	-577.34546	-440.73071	1353.8484	-578.79047	-388.93906	1367.74	-664.64386	165.24118	1461.8735	-235.30646	313.80804	1413.9879	-288.53754	423.40427	1384.0907	-298.62762	403.4173	1378.8749	-342.41287	416.3952	1343.1827	-540.08655	487.065	1363.868	-533.69269	454.29028	1348.6221	-632.8031	-81.812759	924.73529	-396.77963	134.6902	942.16077	-388.61017	-16.245462	990.65253	-167.73376	61.471874	990.35797	-165.91486	-130.66634	581.85199	-328.24698	-116.95522	489.61209	-310.85568	-71.923065	435.07181	-338.76093	-125.6125	93.566154	-225.94774	-82.847115	73.714325	-163.29366	-90.291466	48.581921	-427.32455	214.80084	725.4765	-296.27158	140.31767	485.70901	-309.94156	98.889496	448.4425	-328.86951	149.93951	88.68087	-220.32642	104.61658	71.766754	-165.32504	113.61358	54.241814	-422.58231	166.69257	53.845226	-360.40872	67.056885	98.661079	-239.30785	-148.37999	54.677547	-346.16635	-38.635601	94.969627	-241.55429	156.82448	814.00275	-392.36725	119.18758	605.62897	-372.55029	42.854263	469.97299	-290.09518	-76.488739	790.79187	-420.19925	-84.784172	637.57758	-393.24619	-14.166325	471.8642	-309.75751	56.475552	1234.6011	-146.92876	379.30966	1377.0465	-245.51083	273.02249	1431.6812	-231.0985	184.58939	1375.5151	-170.97211	174.94489	1425.4562	-320.36044				477.85184	1345.7246	-623.66534	493.74619	1350.5232	-592.72223	430.44699	1350.0087	-631.89917	-154.23947	1426.7469	-339.52841	-193.67384	1413.9956	-214.35175	-259.19058	1461.9098	-281.61774	-375.94788	1393.7716	-274.07239	-416.52615	1401.839	-332.00217	-414.16599	1362.598	-663.88757	-359.85394	1363.588	-665.26636
500	4.99	-3.9802134	1658.9583	-413.84558	3.2299702	1486.0914	-195.43687	6.1272449	1420.3394	-331.72906	6.9202704	1218.5035	-386.75116	-153.83792	1477.1451	-258.11664	-319.26843	1426.7628	-311.74213	-406.60895	1299.5187	-347.27798	-373.60486	1379.84	-389.88959	-364.48639	1359.7903	-577.41528	-440.71732	1353.7114	-578.88446	-388.89444	1367.6899	-664.70581	165.20306	1461.8687	-235.33885	313.78265	1413.995	-288.5878	423.35693	1384.0789	-298.66357	403.40421	1378.9191	-342.45981	416.37161	1343.3823	-540.10559	487.07263	1364.0499	-533.72913	454.25745	1348.9191	-632.82208	-81.834099	924.72333	-396.87836	134.67548	942.12793	-388.6846	-16.237125	990.61499	-167.82907	61.489182	990.36255	-165.88483	-130.5061	581.56018	-328.59106	-116.9864	489.58423	-310.89844	-71.95063	435.04916	-338.82153	-125.63133	93.61364	-225.92558	-82.833199	73.676979	-163.28499	-90.279373	48.562389	-427.31445	214.81172	725.4447	-296.32623	140.29881	485.68869	-309.95096	98.896362	448.47339	-328.88046	149.94275	88.679405	-220.32956	104.66633	71.724129	-165.3497	113.60632	54.214241	-422.57101	166.69699	53.826717	-360.40903	67.080643	98.654427	-239.30385	-148.38597	54.66819	-346.15875	-38.663376	94.96048	-241.51219	156.81038	813.96698	-392.44565	119.16854	605.59766	-372.56726	42.842014	470.01004	-290.0881	-76.549751	790.75171	-420.31311	-84.797668	637.57452	-393.3595	-14.180948	471.86438	-309.82919	56.431477	1234.5394	-147.01532	379.2775	1377.0294	-245.5435	272.96362	1431.6802	-231.14018	184.51942	1375.4537	-171.07466	174.86392	1425.4398	-320.37357				477.65009	1346.007	-623.61737	493.69727	1350.8131	-592.76288	430.47733	1350.3958	-632.06018	-154.2804	1426.689	-339.52652	-193.70816	1413.9053	-214.42636	-259.25369	1461.8193	-281.66058	-375.95792	1393.5946	-274.13959	-416.53336	1401.686	-332.05008	-414.09875	1362.5175	-664.00482	-359.80862	1363.5352	-665.3125
